<svg xmlns="http://www.w3.org/2000/svg" width="150pt" height="150pt" viewBox="0 0 150 150" version="1.1" class="iconadda">
<g id="animate_0" transform="rotate(0,75,75) translate(0,0) scale(1.0,1.0)">
<g id="animate_1" style="transform-origin: 75.002px 74.9959px;"><path style="stroke: none; fill-rule: nonzero; fill-opacity: 1;" d="M 30.484375 10.871094 C 27.285156 11.34375 23.445312 12.84375 20.71875 14.707031 C 18.9375 15.882812 16.636719 18.09375 15.3125 19.828125 C 13.832031 21.777344 12.027344 25.53125 11.316406 28.105469 L 10.714844 30.25 L 10.714844 119.664062 L 11.316406 121.808594 C 12.023438 124.382812 13.824219 128.136719 15.3125 130.085938 C 18.101562 133.730469 22.398438 136.800781 26.710938 138.191406 C 30.273438 139.328125 28.492188 139.28125 75.003906 139.28125 C 121.539062 139.28125 119.757812 139.328125 123.296875 138.167969 C 127.632812 136.773438 131.925781 133.726562 134.695312 130.082031 C 136.175781 128.109375 138 124.355469 138.707031 121.804688 L 139.289062 119.660156 L 139.289062 30.246094 L 138.6875 28.101562 C 137.980469 25.53125 136.179688 21.773438 134.699219 19.824219 C 133.367188 18.085938 131.074219 15.878906 129.292969 14.703125 C 127.382812 13.394531 124.269531 11.980469 121.867188 11.316406 L 119.761719 10.738281 L 75.761719 10.714844 C 51.570312 10.691406 31.179688 10.761719 30.496094 10.863281 Z M 90.453125 34.523438 C 97.238281 35.636719 101.867188 37.867188 104.894531 41.472656 C 106.179688 42.996094 107.683594 46.019531 108.308594 48.273438 C 108.695312 49.75 108.757812 50.585938 108.78125 54.277344 C 108.804688 58.160156 108.757812 58.734375 108.308594 60.257812 C 107 64.804688 104.144531 68.296875 99.527344 71.003906 L 97.941406 71.925781 L 99.078125 72.289062 C 100.8125 72.867188 103.714844 74.371094 105.195312 75.484375 C 108.886719 78.269531 111.460938 82.601562 112.492188 87.769531 C 112.988281 90.34375 112.988281 95.855469 112.46875 98.214844 C 110.429688 107.5 103.238281 113.953125 92.421875 116.117188 C 88.277344 116.953125 87.210938 117 64.96875 117 L 43.230469 117 L 43.230469 33.996094 L 65.726562 34.082031 C 85.859375 34.144531 88.433594 34.191406 90.453125 34.53125 Z M 61.691406 57.933594 L 61.691406 67.710938 L 72.058594 67.625 C 81.785156 67.515625 82.511719 67.496094 84.078125 67.066406 C 88.972656 65.734375 91.09375 62.925781 91.09375 57.78125 C 91.09375 53.835938 89.699219 51.28125 86.671875 49.78125 C 83.992188 48.449219 81.089844 48.171875 69.695312 48.148438 L 61.6875 48.148438 L 61.6875 57.925781 Z M 61.691406 91.472656 L 61.691406 102.859375 L 73.023438 102.773438 C 85.753906 102.6875 86.179688 102.644531 89.316406 101.125 C 92.925781 99.367188 94.527344 96.492188 94.527344 91.796875 C 94.527344 85.753906 92.125 82.40625 86.589844 80.734375 C 85.023438 80.238281 84.722656 80.238281 73.347656 80.15625 L 61.691406 80.09375 L 61.691406 91.480469 Z M 61.691406 91.472656 " id="animate_2" data-original="#000001" fill="#ffffff"></path>
</g></g>
</svg>