<svg xmlns="http://www.w3.org/2000/svg" width="150pt" height="150pt" viewBox="0 0 150 150" version="1.1">
<g id="animate_0" transform="rotate(0,75,75) translate(0,0) scale(1.0,1.0)">
<g id="animate_1" style="transform-origin: 75px 75.0176px;"><path style="stroke: none; fill-rule: nonzero; fill-opacity: 1;" d="M 83.199219 75 C 83.199219 35.742188 51.367188 3.90625 12.113281 3.90625 L 0 3.90625 L 0 35.15625 L 12.113281 35.15625 C 34.128906 35.15625 51.953125 53 51.953125 75 C 51.953125 97 34.136719 114.84375 12.113281 114.84375 L 0 114.84375 L 0 146.09375 L 12.113281 146.09375 C 51.371094 146.09375 83.199219 114.257812 83.199219 75 Z M 150 47.265625 C 150 35.765625 145.433594 24.734375 137.300781 16.601562 C 129.167969 8.472656 118.136719 3.90625 106.636719 3.910156 L 56.632812 3.910156 C 68.933594 11.617188 79.019531 22.382812 85.90625 35.160156 L 106.632812 35.160156 C 113.320312 35.160156 118.742188 40.582031 118.742188 47.269531 C 118.742188 53.960938 113.320312 59.382812 106.632812 59.382812 L 94.523438 59.382812 C 96.476562 69.707031 96.476562 80.308594 94.523438 90.632812 L 106.632812 90.632812 C 113.324219 90.632812 118.753906 96.058594 118.753906 102.753906 C 118.753906 109.449219 113.324219 114.875 106.632812 114.875 L 85.90625 114.875 C 79.019531 127.652344 68.933594 138.421875 56.632812 146.128906 L 106.632812 146.128906 C 116.773438 146.128906 126.582031 142.566406 134.367188 136.09375 C 152.746094 120.761719 155.292969 93.441406 139.960938 75.039062 L 139.964844 75.039062 C 146.449219 67.238281 149.996094 57.414062 149.996094 47.273438 Z M 150 47.265625 " id="animate_2" data-original="#000000" fill="#ffffff"></path>
</g></g>
</svg>