<svg xmlns="http://www.w3.org/2000/svg" width="150pt" height="150pt" viewBox="0 0 150 150" version="1.1" class="iconadda">
<g id="animate_0" transform="rotate(0,75,75) translate(0,0) scale(1.0,1.0)">
<g id="animate_1" style="transform-origin: 75.1119px 75px;"><path style="stroke: none; fill-rule: nonzero; fill-opacity: 1;" d="M 110.625 54.0625 C 117.378906 49.382812 121.359375 41.652344 121.25 33.4375 C 121.25 26.695312 118.59375 20.222656 113.855469 15.425781 C 109.117188 10.628906 102.679688 7.894531 95.9375 7.8125 L 54.0625 7.8125 C 47.320312 7.894531 40.882812 10.628906 36.144531 15.425781 C 31.40625 20.222656 28.75 26.695312 28.75 33.4375 C 28.640625 41.652344 32.621094 49.382812 39.375 54.0625 C 32.695312 58.945312 28.746094 66.726562 28.746094 75 C 28.746094 83.273438 32.695312 91.054688 39.375 95.9375 C 32.621094 100.617188 28.640625 108.347656 28.75 116.5625 C 28.75 123.304688 31.40625 129.777344 36.144531 134.574219 C 40.882812 139.371094 47.320312 142.105469 54.0625 142.1875 C 60.859375 142.1875 67.375 139.488281 72.183594 134.683594 C 76.988281 129.875 79.6875 123.359375 79.6875 116.5625 L 79.6875 94.6875 C 84.210938 98.5625 89.980469 100.671875 95.9375 100.625 C 103.230469 100.601562 110.167969 97.46875 115.011719 92.015625 C 119.855469 86.5625 122.144531 79.304688 121.308594 72.058594 C 120.46875 64.8125 116.585938 58.265625 110.625 54.0625 Z M 111.875 33.4375 C 111.875 37.664062 110.195312 41.71875 107.207031 44.707031 C 104.21875 47.695312 100.164062 49.375 95.9375 49.375 L 79.6875 49.375 L 79.6875 17.1875 L 95.9375 17.1875 C 100.21875 17.1875 104.320312 18.910156 107.320312 21.964844 C 110.316406 25.023438 111.957031 29.15625 111.875 33.4375 Z M 38.125 33.4375 C 38.042969 29.15625 39.683594 25.023438 42.679688 21.964844 C 45.679688 18.910156 49.78125 17.1875 54.0625 17.1875 L 70.3125 17.1875 L 70.3125 49.375 L 54.0625 49.375 C 49.835938 49.375 45.78125 47.695312 42.792969 44.707031 C 39.804688 41.71875 38.125 37.664062 38.125 33.4375 Z M 38.125 75 C 38.125 70.742188 39.792969 66.65625 42.773438 63.617188 C 45.753906 60.578125 49.808594 58.832031 54.0625 58.75 L 70.3125 58.75 L 70.3125 91.25 L 54.0625 91.25 C 49.808594 91.167969 45.753906 89.421875 42.773438 86.382812 C 39.792969 83.34375 38.125 79.257812 38.125 75 Z M 70.3125 116.5625 C 70.394531 120.890625 68.75 125.070312 65.738281 128.179688 C 62.726562 131.289062 58.601562 133.066406 54.273438 133.125 C 49.949219 133.179688 45.777344 131.507812 42.6875 128.476562 C 39.597656 125.445312 37.84375 121.308594 37.816406 116.980469 C 37.789062 112.652344 39.488281 108.492188 42.535156 105.421875 C 45.585938 102.351562 49.734375 100.625 54.0625 100.625 L 70.3125 100.625 Z M 95.9375 91.25 C 91.609375 91.332031 87.429688 89.6875 84.320312 86.675781 C 81.210938 83.664062 79.433594 79.539062 79.375 75.210938 C 79.320312 70.886719 80.992188 66.714844 84.023438 63.625 C 87.054688 60.535156 91.191406 58.78125 95.519531 58.753906 C 99.847656 58.726562 104.007812 60.425781 107.078125 63.472656 C 110.148438 66.523438 111.875 70.671875 111.875 75 C 111.875 79.257812 110.207031 83.34375 107.226562 86.382812 C 104.246094 89.421875 100.191406 91.167969 95.9375 91.25 Z M 95.9375 91.25 " id="animate_2" data-original="#000001" fill="#ffffff"></path>
</g></g>
</svg>