<svg xmlns="http://www.w3.org/2000/svg" width="18pt" height="18pt" viewBox="0 0 18 18" version="1.1" class="iconadda">
<g id="animate_0" transform="rotate(0,9,9) translate(0,0) scale(1.0,1.0)">
<g id="animate_1" style="transform-origin: 8.67497px 9.23485px;"><path style="stroke: none; fill-rule: nonzero; fill-opacity: 1;" d="M 4.414062 13.988281 C 4.1875 13.839844 3.996094 13.648438 3.769531 13.375 L 3.765625 13.378906 C 3.648438 13.234375 3.53125 13.089844 3.417969 12.945312 C 3.070312 12.515625 2.851562 12.316406 2.625 12.234375 L 2.625 12.230469 C 2.234375 12.089844 2.03125 11.660156 2.171875 11.273438 C 2.3125 10.882812 2.742188 10.679688 3.132812 10.820312 C 3.695312 11.023438 4.078125 11.371094 4.59375 12.011719 C 4.523438 11.925781 4.847656 12.332031 4.917969 12.414062 C 5.058594 12.585938 5.164062 12.6875 5.246094 12.742188 C 5.398438 12.84375 5.6875 12.890625 6.109375 12.847656 C 6.125 12.5625 6.179688 12.28125 6.261719 12.027344 C 4.035156 11.484375 2.773438 10.046875 2.773438 7.230469 C 2.773438 6.300781 3.050781 5.464844 3.566406 4.761719 C 3.402344 4.089844 3.425781 3.28125 3.792969 2.367188 L 3.796875 2.367188 C 3.878906 2.15625 4.050781 1.996094 4.265625 1.929688 C 4.328125 1.910156 4.359375 1.902344 4.421875 1.894531 C 5.023438 1.800781 5.875 2.023438 6.984375 2.714844 L 6.984375 2.71875 C 7.644531 2.5625 8.320312 2.484375 9 2.484375 C 9.683594 2.484375 10.363281 2.5625 11.011719 2.714844 C 12.121094 2.015625 12.972656 1.796875 13.578125 1.894531 C 13.640625 1.902344 13.695312 1.917969 13.742188 1.933594 C 13.953125 2.003906 14.121094 2.160156 14.203125 2.367188 C 14.570312 3.277344 14.59375 4.089844 14.429688 4.757812 C 14.949219 5.460938 15.222656 6.292969 15.222656 7.226562 C 15.222656 10.042969 13.96875 11.476562 11.742188 12.019531 C 11.835938 12.332031 11.882812 12.679688 11.882812 13.054688 L 11.886719 13.058594 C 11.886719 13.738281 11.882812 14.417969 11.878906 15.097656 C 12.222656 15.171875 12.46875 15.480469 12.46875 15.835938 C 12.464844 16.191406 12.210938 16.496094 11.863281 16.566406 C 11.007812 16.738281 10.375 16.167969 10.375 15.421875 L 10.375 15.085938 L 10.378906 14.558594 C 10.382812 14.027344 10.382812 13.554688 10.382812 13.058594 C 10.382812 12.535156 10.246094 12.195312 10.0625 12.039062 C 9.566406 11.613281 9.816406 10.796875 10.46875 10.726562 C 12.695312 10.476562 13.722656 9.613281 13.722656 7.230469 C 13.722656 6.515625 13.488281 5.921875 13.039062 5.425781 C 12.847656 5.214844 12.792969 4.910156 12.898438 4.644531 C 13.023438 4.335938 13.078125 3.925781 12.96875 3.433594 L 12.960938 3.4375 C 12.59375 3.542969 12.128906 3.765625 11.566406 4.148438 L 11.570312 4.148438 C 11.386719 4.269531 11.15625 4.308594 10.945312 4.246094 C 10.3125 4.074219 9.65625 3.984375 9 3.984375 C 8.332031 3.984375 7.671875 4.074219 7.054688 4.246094 L 7.054688 4.25 C 6.84375 4.308594 6.617188 4.273438 6.433594 4.148438 C 5.871094 3.769531 5.402344 3.542969 5.03125 3.4375 C 4.921875 3.925781 4.976562 4.332031 5.101562 4.644531 C 5.207031 4.910156 5.152344 5.214844 4.960938 5.425781 C 4.511719 5.917969 4.273438 6.519531 4.273438 7.230469 C 4.273438 9.609375 5.300781 10.476562 7.515625 10.726562 C 8.164062 10.800781 8.417969 11.609375 7.921875 12.039062 C 7.777344 12.164062 7.601562 12.589844 7.601562 13.0625 L 7.601562 15.425781 C 7.601562 16.164062 6.976562 16.71875 6.132812 16.570312 L 6.132812 16.566406 C 5.78125 16.503906 5.519531 16.203125 5.511719 15.84375 C 5.503906 15.484375 5.753906 15.171875 6.101562 15.097656 L 6.101562 14.355469 C 5.417969 14.402344 4.855469 14.289062 4.410156 13.992188 Z M 4.414062 13.988281 " id="animate_2" data-original="#000001" fill="#ffffff"></path>
</g></g>
</svg>