<svg xmlns="http://www.w3.org/2000/svg" width="150pt" height="150pt" viewBox="0 0 150 150" version="1.1">
<g id="animate_0" transform="rotate(0,75,75) translate(0,0) scale(1.0,1.0)">
<g id="animate_1" style="transform-origin: 75px 75px;"><path style="stroke: none; fill-rule: nonzero; fill-opacity: 1;" d="M 0 0 L 150 0 L 150 150 L 0 150 Z M 137.71875 114.234375 C 136.621094 107.371094 132.148438 101.632812 118.945312 96.265625 C 114.355469 94.117188 109.226562 92.605469 107.714844 89.136719 C 107.152344 87.082031 107.054688 85.964844 107.417969 84.738281 C 108.371094 80.683594 113.132812 79.488281 116.890625 80.613281 C 119.332031 81.367188 121.578125 83.222656 122.992188 86.230469 C 129.460938 82.007812 129.460938 82.007812 133.957031 79.199219 C 132.273438 76.589844 131.445312 75.441406 130.296875 74.34375 C 126.363281 69.921875 121.117188 67.679688 112.597656 67.875 L 108.175781 68.4375 C 103.953125 69.464844 99.925781 71.710938 97.484375 74.714844 C 90.378906 82.773438 92.429688 96.835938 101.046875 102.671875 C 109.570312 109.042969 122.042969 110.433594 123.65625 116.445312 C 125.148438 123.773438 118.214844 126.117188 111.351562 125.257812 C 106.296875 124.132812 103.492188 121.597656 100.386719 116.910156 L 88.957031 123.476562 C 90.25 126.480469 91.765625 127.773438 94.011719 130.410156 C 104.878906 141.375 132.074219 140.8125 136.953125 124.132812 C 137.121094 123.570312 138.445312 119.710938 137.417969 113.828125 Z M 81.566406 68.945312 L 67.527344 68.945312 C 67.527344 81.054688 67.453125 93.089844 67.453125 105.226562 C 67.453125 112.917969 67.84375 119.996094 66.601562 122.171875 C 64.523438 126.46875 59.226562 125.929688 56.808594 125.175781 C 54.34375 123.957031 53.074219 122.269531 51.632812 119.828125 C 51.214844 119.167969 50.925781 118.609375 50.828125 118.609375 L 39.429688 125.640625 C 41.332031 129.574219 44.117188 132.96875 47.707031 135.113281 C 53.054688 138.308594 60.230469 139.335938 67.75 137.652344 C 72.632812 136.238281 76.859375 133.332031 79.050781 128.839844 C 82.246094 123.027344 81.5625 115.902344 81.539062 107.914062 C 81.613281 95.070312 81.539062 82.230469 81.539062 69.289062 Z M 81.566406 68.945312 " id="animate_2" data-original="#000000" fill="#ffffff"></path>
</g></g>
</svg>