<svg xmlns="http://www.w3.org/2000/svg" width="150pt" height="150pt" viewBox="0 0 150 150" version="1.1" class="iconadda">
<g id="animate_0" transform="rotate(0,75,75) translate(0,0) scale(1.0,1.0)">
<g id="animate_1" style="transform-origin: 75px 78.1875px;"><path style="stroke: none; fill-rule: nonzero; fill-opacity: 1;" d="M 50 103.8125 L 50 96.0625 L 87.5 74.4375 L 87.5 45.1875 L 56.25 63.25 L 25 45.1875 L 25 81.25 L 18.75 84.875 L 12.5 81.25 L 12.5 31.25 L 19.1875 27.375 L 56.25 48.8125 L 80.8125 34.625 L 93.3125 27.375 L 100 31.25 L 100 81.625 L 68.25 100 L 93.75 114.5625 L 125 96.4375 L 125 68.75 L 131.25 65.125 L 137.5 68.75 L 137.5 103.625 L 93.75 129 L 50 104 M 137.5 60.9375 L 131.25 64.5625 L 125 60.9375 L 125 53.625 L 131.25 50 L 137.5 53.625 Z M 137.5 60.9375 " id="animate_2" data-original="#000001" fill="#ffffff"></path>
</g></g>
</svg>