<svg xmlns="http://www.w3.org/2000/svg" width="150pt" height="150pt" viewBox="0 0 150 150" version="1.1" class="iconadda">
<g id="animate_0" transform="rotate(0,75,75) translate(0,0) scale(1.0,1.0)">
<g id="animate_1" style="transform-origin: 75.002px 75.011px;"><path style="stroke: none; fill-rule: nonzero; fill-opacity: 1;" d="M 111.332031 140.636719 C 110.777344 140.929688 110.808594 141.050781 111.363281 140.769531 C 111.523438 140.699219 111.671875 140.597656 111.800781 140.476562 C 111.800781 140.375 111.789062 140.390625 111.332031 140.640625 Z M 112.445312 140.050781 C 112.183594 140.257812 112.183594 140.269531 112.5 140.105469 C 112.675781 140.019531 112.824219 139.917969 112.824219 139.886719 C 112.824219 139.769531 112.75 139.800781 112.441406 140.050781 Z M 113.175781 139.605469 C 112.914062 139.8125 112.914062 139.824219 113.230469 139.660156 C 113.40625 139.574219 113.554688 139.472656 113.554688 139.441406 C 113.554688 139.324219 113.480469 139.355469 113.171875 139.605469 Z M 113.90625 139.167969 C 113.644531 139.375 113.644531 139.386719 113.960938 139.222656 C 114.136719 139.136719 114.285156 139.035156 114.285156 139.003906 C 114.285156 138.886719 114.210938 138.917969 113.902344 139.167969 Z M 114.917969 138.511719 C 114.40625 138.835938 114.242188 139.054688 114.699219 138.804688 C 115.023438 138.617188 115.550781 138.21875 115.460938 138.203125 L 115.460938 138.207031 C 115.269531 138.289062 115.089844 138.390625 114.917969 138.511719 Z M 70.085938 0.0390625 C 69.761719 0.0703125 68.734375 0.171875 67.8125 0.246094 C 46.511719 2.164062 26.554688 13.660156 13.917969 31.328125 L 13.917969 31.324219 C 6.933594 41.023438 2.390625 52.265625 0.679688 64.09375 C 0.078125 68.210938 0.00390625 69.429688 0.00390625 75.019531 C 0.00390625 80.605469 0.078125 81.820312 0.679688 85.945312 C 4.753906 114.109375 24.796875 137.769531 51.980469 146.539062 C 56.847656 148.109375 61.980469 149.175781 67.8125 149.820312 C 70.085938 150.070312 79.90625 150.070312 82.179688 149.820312 C 92.25 148.707031 100.785156 146.214844 109.199219 141.921875 C 110.488281 141.257812 110.738281 141.085938 110.5625 140.941406 L 110.5625 140.9375 C 106.453125 135.507812 102.382812 130.050781 98.351562 124.5625 L 86.359375 108.363281 L 71.335938 86.125 L 71.332031 86.125 C 66.335938 78.683594 61.292969 71.277344 56.199219 63.898438 C 56.144531 63.886719 56.082031 73.765625 56.054688 85.828125 C 56.011719 106.953125 56 107.804688 55.730469 108.304688 C 55.476562 108.890625 55.019531 109.363281 54.445312 109.636719 C 53.976562 109.875 53.5625 109.917969 51.351562 109.917969 L 48.8125 109.917969 L 48.136719 109.492188 C 47.722656 109.230469 47.382812 108.863281 47.15625 108.425781 L 46.851562 107.761719 L 46.882812 78.367188 L 46.925781 48.960938 L 47.382812 48.390625 L 47.382812 48.394531 C 47.6875 48.035156 48.054688 47.730469 48.46875 47.5 C 49.070312 47.207031 49.304688 47.175781 51.84375 47.175781 C 54.835938 47.175781 55.332031 47.292969 56.113281 48.144531 C 62.195312 57.195312 68.226562 66.28125 74.207031 75.398438 C 83.945312 90.160156 97.25 110.316406 103.792969 120.21875 L 115.667969 138.207031 L 116.269531 137.8125 C 121.984375 134.011719 127.164062 129.464844 131.675781 124.292969 C 141.125 113.480469 147.253906 100.167969 149.324219 85.957031 C 149.925781 81.839844 150 80.621094 150 75.03125 C 150 69.445312 149.925781 68.230469 149.324219 64.105469 C 145.25 35.941406 125.207031 12.28125 98.023438 3.511719 C 92.945312 1.894531 87.714844 0.800781 82.414062 0.242188 C 81.007812 0.0976562 71.3125 -0.0625 70.101562 0.0546875 Z M 100.785156 45.402344 L 100.789062 45.398438 C 101.492188 45.753906 102.027344 46.378906 102.269531 47.132812 C 102.386719 47.515625 102.414062 55.664062 102.386719 74.03125 L 102.34375 100.394531 L 97.695312 93.269531 L 93.03125 86.144531 L 93.03125 66.980469 C 93.03125 54.59375 93.085938 47.628906 93.175781 47.292969 C 93.390625 46.507812 93.910156 45.839844 94.625 45.445312 C 95.226562 45.140625 95.445312 45.109375 97.75 45.109375 C 99.917969 45.109375 100.300781 45.140625 100.789062 45.402344 Z M 100.785156 45.402344 " id="animate_2" data-original="#000001" fill="#ffffff" class=""></path>
</g></g>
</svg>