<svg xmlns="http://www.w3.org/2000/svg" width="150pt" height="150pt" viewBox="0 0 150 150" version="1.1" class="iconadda">
<g id="animate_0" transform="rotate(0,75,75) translate(0,0) scale(1.0,1.0)">
<g id="animate_1" style="transform-origin: 75px 75.002px;"><path style="stroke: none; fill-rule: nonzero; fill-opacity: 1;" d="M 116.582031 86.675781 C 116.582031 75.546875 109.058594 72.582031 93.230469 70.488281 C 77.230469 68.375 75.605469 67.277344 75.605469 63.535156 C 75.605469 60.441406 76.984375 56.3125 88.832031 56.3125 C 99.417969 56.3125 103.316406 58.589844 104.925781 65.726562 C 105.074219 66.398438 105.667969 66.890625 106.375 66.894531 L 113.058594 66.894531 C 113.488281 66.890625 113.875 66.707031 114.144531 66.421875 C 114.394531 66.15625 114.542969 65.796875 114.542969 65.40625 C 114.542969 65.359375 114.542969 65.316406 114.539062 65.269531 L 114.539062 65.273438 C 113.503906 52.984375 105.335938 47.253906 88.835938 47.253906 C 74.144531 47.253906 65.378906 53.449219 65.378906 63.847656 C 65.378906 75.125 74.09375 78.238281 88.191406 79.636719 C 105.0625 81.285156 106.371094 83.753906 106.371094 87.070312 C 106.371094 92.828125 101.75 95.28125 90.894531 95.28125 C 77.261719 95.28125 74.261719 91.859375 73.253906 85.078125 C 73.136719 84.359375 72.523438 83.816406 71.777344 83.816406 C 71.777344 83.816406 71.773438 83.816406 71.773438 83.816406 L 65.113281 83.816406 C 65.109375 83.816406 65.109375 83.816406 65.105469 83.816406 C 64.289062 83.816406 63.628906 84.476562 63.628906 85.292969 C 63.628906 85.292969 63.628906 85.296875 63.628906 85.296875 C 63.628906 93.976562 68.347656 104.324219 90.894531 104.324219 C 107.226562 104.328125 116.585938 97.90625 116.585938 86.675781 Z M 74.992188 145.292969 C 74.992188 145.292969 74.988281 145.292969 74.988281 145.292969 C 73 145.292969 71.140625 144.753906 69.542969 143.816406 L 69.59375 143.84375 L 52.394531 133.667969 C 49.832031 132.234375 51.082031 131.722656 51.925781 131.421875 C 54.894531 130.484375 57.472656 129.285156 59.851562 127.796875 L 59.707031 127.882812 C 59.867188 127.808594 60.058594 127.761719 60.253906 127.761719 C 60.527344 127.761719 60.773438 127.847656 60.984375 127.988281 L 60.980469 127.984375 L 74.195312 135.828125 C 74.425781 135.953125 74.703125 136.023438 74.992188 136.023438 C 75.28125 136.023438 75.558594 135.949219 75.796875 135.820312 L 75.789062 135.824219 L 127.308594 106.089844 C 127.78125 105.800781 128.089844 105.289062 128.089844 104.703125 C 128.089844 104.703125 128.089844 104.699219 128.089844 104.699219 L 128.089844 45.242188 C 128.089844 44.640625 127.769531 44.121094 127.292969 43.828125 L 127.285156 43.824219 L 75.789062 14.113281 C 75.558594 13.980469 75.289062 13.90625 74.996094 13.90625 C 74.707031 13.90625 74.429688 13.980469 74.195312 14.117188 L 74.203125 14.113281 L 22.71875 43.832031 C 22.230469 44.121094 21.914062 44.648438 21.902344 45.242188 L 21.902344 104.699219 C 21.902344 105.289062 22.230469 105.800781 22.707031 106.074219 L 22.714844 106.078125 L 36.824219 114.230469 C 44.480469 118.058594 49.171875 113.550781 49.171875 109.019531 L 49.171875 50.316406 C 49.171875 49.5 49.832031 48.835938 50.652344 48.835938 C 50.65625 48.835938 50.667969 48.835938 50.671875 48.835938 L 57.203125 48.835938 C 57.203125 48.835938 57.207031 48.835938 57.207031 48.835938 C 58.027344 48.835938 58.691406 49.496094 58.699219 50.316406 L 58.699219 109.019531 C 58.773438 109.574219 58.820312 110.214844 58.820312 110.867188 C 58.820312 118.75 52.429688 125.140625 44.546875 125.140625 C 44.164062 125.140625 43.777344 125.125 43.398438 125.09375 L 43.449219 125.097656 C 43.335938 125.097656 43.199219 125.101562 43.066406 125.101562 C 38.820312 125.101562 34.847656 123.902344 31.488281 121.816406 L 31.582031 121.871094 L 18.0625 114.097656 C 14.808594 112.179688 12.664062 108.691406 12.664062 104.703125 L 12.664062 45.246094 C 12.664062 41.257812 14.8125 37.773438 18.011719 35.886719 L 18.0625 35.859375 L 69.582031 6.089844 C 71.144531 5.21875 73.007812 4.707031 74.996094 4.707031 C 76.984375 4.707031 78.84375 5.21875 80.464844 6.117188 L 80.410156 6.089844 L 131.921875 35.859375 C 135.179688 37.777344 137.332031 41.257812 137.335938 45.25 L 137.335938 104.707031 C 137.328125 108.695312 135.179688 112.183594 131.972656 114.074219 L 131.921875 114.101562 L 80.410156 143.847656 C 78.863281 144.757812 77.007812 145.296875 75.023438 145.296875 C 75.015625 145.296875 75 145.296875 74.992188 145.296875 Z M 74.992188 145.292969 " id="animate_2" data-original="#000001" fill="#ffffff"></path>
</g></g>
</svg>