<svg xmlns="http://www.w3.org/2000/svg" width="150pt" height="150pt" viewBox="0 0 150 150" version="1.1" class="iconadda">
<g id="animate_0" transform="rotate(0,75,75) translate(0,0) scale(1.0,1.0)">
<g id="animate_1" style="transform-origin: 75px 75px;"><path style="stroke: none; fill-rule: nonzero; fill-opacity: 1;" d="M 75 84.375 C 69.824219 84.375 65.625 80.175781 65.625 75 C 65.625 69.824219 69.824219 65.625 75 65.625 C 80.175781 65.625 84.375 69.824219 84.375 75 C 84.375 80.175781 80.175781 84.375 75 84.375 Z M 71.699219 103.085938 C 72.792969 104.398438 73.894531 105.671875 75 106.890625 C 76.105469 105.671875 77.207031 104.402344 78.300781 103.085938 C 76.101562 103.132812 73.898438 103.132812 71.699219 103.085938 Z M 59.230469 102.304688 C 54.429688 101.808594 49.664062 101.039062 44.949219 100.007812 C 44.480469 102.195312 44.125 104.320312 43.886719 106.359375 C 42.699219 116.253906 44.355469 122.265625 46.875 123.714844 C 49.394531 125.171875 55.425781 123.597656 63.40625 117.628906 C 65.050781 116.398438 66.707031 115.027344 68.367188 113.535156 L 68.367188 113.53125 C 65.117188 109.964844 62.066406 106.214844 59.230469 102.304688 Z M 105.050781 100.003906 C 100.570312 101.003906 95.78125 101.777344 90.769531 102.304688 C 87.933594 106.214844 84.882812 109.964844 81.632812 113.53125 C 83.296875 115.03125 84.953125 116.394531 86.59375 117.625 C 94.574219 123.59375 100.605469 125.167969 103.125 123.710938 C 105.644531 122.261719 107.292969 116.25 106.117188 106.355469 C 105.859375 104.222656 105.507812 102.105469 105.054688 100.007812 Z M 114.113281 97.585938 C 117.71875 114.078125 115.824219 127.210938 107.8125 131.835938 C 99.800781 136.460938 87.480469 131.535156 75 120.167969 C 62.519531 131.535156 50.199219 136.457031 42.1875 131.832031 C 34.175781 127.207031 32.28125 114.082031 35.882812 97.582031 C 19.792969 92.460938 9.375 84.25 9.375 75 C 9.375 65.75 19.792969 57.542969 35.882812 52.414062 C 32.28125 35.921875 34.175781 22.789062 42.1875 18.164062 C 50.199219 13.539062 62.519531 18.464844 75 29.832031 C 87.480469 18.464844 99.800781 13.542969 107.8125 18.167969 C 115.824219 22.792969 117.71875 35.917969 114.117188 52.417969 C 130.207031 57.539062 140.625 65.75 140.625 75 C 140.625 84.25 130.207031 92.457031 114.117188 97.585938 Z M 68.363281 36.46875 C 66.773438 35.03125 65.121094 33.664062 63.40625 32.375 C 55.425781 26.40625 49.394531 24.832031 46.875 26.289062 C 44.355469 27.738281 42.707031 33.75 43.882812 43.644531 C 44.132812 45.6875 44.484375 47.808594 44.945312 49.996094 L 44.945312 49.992188 C 49.660156 48.960938 54.429688 48.191406 59.230469 47.695312 C 62.199219 43.613281 65.261719 39.859375 68.367188 36.46875 Z M 90.769531 47.695312 C 95.78125 48.21875 100.570312 49 105.050781 49.996094 C 105.519531 47.808594 105.875 45.683594 106.113281 43.644531 C 107.300781 33.75 105.644531 27.738281 103.125 26.289062 C 100.605469 24.832031 94.574219 26.40625 86.59375 32.375 C 84.878906 33.664062 83.222656 35.03125 81.632812 36.46875 C 84.738281 39.855469 87.800781 43.613281 90.769531 47.695312 Z M 78.300781 46.914062 C 77.207031 45.601562 76.105469 44.328125 75 43.109375 C 73.894531 44.328125 72.792969 45.597656 71.699219 46.914062 C 73.898438 46.867188 76.101562 46.867188 78.300781 46.914062 Z M 52.324219 91.902344 L 52.324219 91.898438 C 51.183594 90.019531 50.085938 88.113281 49.023438 86.1875 C 48.429688 87.792969 47.878906 89.375 47.378906 90.945312 C 48.984375 91.296875 50.636719 91.613281 52.316406 91.902344 Z M 64.398438 93.363281 C 71.457031 93.886719 78.542969 93.886719 85.601562 93.363281 C 89.582031 87.511719 93.125 81.375 96.199219 75 C 93.125 68.625 89.582031 62.488281 85.601562 56.636719 C 78.542969 56.113281 71.457031 56.113281 64.398438 56.636719 C 60.417969 62.488281 56.875 68.625 53.800781 75 C 56.875 81.375 60.417969 87.511719 64.398438 93.363281 Z M 100.972656 63.8125 C 101.566406 62.207031 102.117188 60.625 102.617188 59.054688 C 100.980469 58.699219 99.335938 58.382812 97.679688 58.101562 C 98.820312 59.980469 99.917969 61.886719 100.976562 63.8125 Z M 38.3125 61.480469 C 36.1875 62.167969 34.175781 62.917969 32.289062 63.730469 C 23.132812 67.65625 18.75 72.09375 18.75 75 C 18.75 77.90625 23.125 82.34375 32.289062 86.269531 C 34.175781 87.082031 36.1875 87.832031 38.3125 88.519531 C 39.699219 84.144531 41.417969 79.605469 43.46875 75 C 41.5 70.59375 39.777344 66.082031 38.3125 61.480469 Z M 47.375 59.054688 C 47.882812 60.617188 48.429688 62.203125 49.023438 63.804688 C 50.085938 61.882812 51.183594 59.980469 52.324219 58.101562 C 50.636719 58.390625 48.988281 58.707031 47.378906 59.058594 Z M 111.6875 88.515625 C 113.8125 87.828125 115.824219 87.078125 117.710938 86.265625 C 126.867188 82.34375 131.25 77.90625 131.25 75 C 131.25 72.09375 126.875 67.65625 117.710938 63.730469 C 115.738281 62.890625 113.730469 62.140625 111.6875 61.480469 C 110.300781 65.855469 108.582031 70.394531 106.53125 75 C 108.582031 79.605469 110.300781 84.136719 111.6875 88.519531 Z M 102.625 90.941406 C 102.117188 89.378906 101.570312 87.792969 100.976562 86.191406 L 100.976562 86.195312 C 99.914062 88.117188 98.816406 90.019531 97.675781 91.898438 C 99.363281 91.609375 101.011719 91.292969 102.621094 90.941406 Z M 102.625 90.941406 " id="animate_2" data-original="#000001" fill="#ffffff" class=""></path>
</g></g>
</svg>