<svg xmlns="http://www.w3.org/2000/svg" width="150pt" height="150pt" viewBox="0 0 150 150" version="1.1">
<g id="animate_0" transform="rotate(0,75,75) translate(0,0) scale(1.0,1.0)">
<g id="animate_1" style="transform-origin: 74.9975px 75px;"><path style="stroke: none; fill-rule: nonzero; fill-opacity: 1;" d="M 103.953125 103.148438 C 109.394531 102.683594 113.59375 97.898438 113.328125 92.183594 C 113.03125 86.46875 108.34375 81.886719 102.660156 81.886719 L 102.265625 81.886719 C 96.371094 82.097656 91.761719 87.046875 91.96875 92.945312 C 92.160156 95.949219 93.378906 98.363281 95.066406 100.144531 C 88.5 112.890625 78.683594 122.246094 63.769531 130.125 C 53.761719 135.351562 43.1875 137.328125 32.886719 135.914062 C 24.265625 134.71875 17.53125 130.867188 13.40625 124.683594 C 7.222656 115.308594 6.660156 105.226562 11.816406 95.097656 C 15.570312 87.800781 21.191406 82.445312 24.921875 79.835938 L 24.921875 79.832031 C 23.800781 76.691406 22.929688 73.46875 22.3125 70.191406 C -5.417969 90.042969 -2.585938 117.214844 5.835938 130.035156 C 12.113281 139.410156 24.921875 145.390625 38.960938 145.390625 C 42.726562 145.390625 46.652344 145.125 50.488281 144.167969 C 74.859375 139.480469 93.289062 124.878906 103.855469 103.347656 Z M 137.375 79.738281 C 122.875 62.695312 101.511719 53.320312 77.171875 53.320312 L 73.96875 53.320312 C 72.40625 49.875 68.742188 47.710938 64.617188 47.710938 L 64.351562 47.710938 C 58.445312 47.710938 53.851562 52.789062 54.042969 58.675781 C 54.246094 64.285156 58.996094 68.972656 64.710938 68.972656 L 65.183594 68.972656 C 69.324219 68.804688 72.988281 66.238281 74.558594 62.40625 L 78.023438 62.40625 C 92.457031 62.40625 106.105469 66.628906 118.578125 74.859375 C 128.097656 81.125 134.960938 89.386719 138.789062 99.21875 C 142.160156 107.25 141.960938 115.136719 138.492188 121.703125 C 133.171875 131.976562 124.164062 137.421875 112.296875 137.421875 C 104.800781 137.421875 97.503906 135.078125 93.738281 133.394531 C 91.492188 135.25 87.734375 138.347656 85.019531 140.234375 C 93.273438 143.964844 101.597656 146.117188 109.65625 146.117188 C 127.917969 146.117188 141.492188 135.835938 146.644531 125.90625 C 152.253906 114.675781 151.796875 95.75 137.460938 79.542969 Z M 40.550781 106.519531 C 40.816406 112.246094 45.511719 116.765625 51.242188 116.816406 L 51.613281 116.816406 C 54.457031 116.75 57.152344 115.539062 59.089844 113.457031 C 61.03125 111.375 62.046875 108.601562 61.914062 105.757812 C 61.914062 100.136719 57.058594 95.449219 51.34375 95.449219 L 50.949219 95.449219 C 50.589844 95.449219 50.027344 95.449219 49.539062 95.652344 C 41.777344 82.542969 38.5 68.480469 39.71875 53.316406 C 40.453125 41.894531 44.214844 31.980469 50.949219 23.730469 C 56.570312 16.722656 67.136719 13.230469 74.363281 13.0625 C 94.582031 12.667969 103.027344 37.886719 103.664062 47.898438 L 113.039062 50.707031 C 110.863281 19.992188 91.777344 3.882812 73.515625 3.882812 C 56.378906 3.882812 40.554688 16.332031 34.183594 34.59375 C 25.488281 58.964844 31.203125 82.351562 41.871094 101.101562 C 40.949219 102.296875 40.386719 104.472656 40.554688 106.519531 Z M 40.550781 106.519531 " id="animate_2" data-original="#000000" fill="#ffffff"></path>
</g></g>
</svg>