<svg xmlns="http://www.w3.org/2000/svg" width="150pt" height="150pt" viewBox="0 0 150 150" version="1.1" class="iconadda">
<g id="animate_0" transform="rotate(0,75,75) translate(0,0) scale(1.0,1.0)">
<g id="animate_1" style="transform-origin: 74.9882px 74.9346px;"><path style="stroke: none; fill-rule: nonzero; fill-opacity: 1;" d="M 70.988281 23.5 C 64.363281 23.152344 56.917969 24.167969 49.628906 26.695312 C 38.050781 30.714844 25.53125 37.03125 16.523438 45.265625 C 5.828125 55.0625 4.113281 63.585938 4.816406 67.152344 C 7.320312 79.804688 25.160156 88.058594 32.300781 94.160156 C 31.949219 94.355469 31.621094 94.519531 31.3125 94.691406 C 27.730469 96.433594 14.445312 103.265625 11.042969 110.613281 C 7.199219 118.949219 11.675781 124.914062 14.621094 125.730469 C 23.804688 128.222656 32.890625 123.863281 37.9375 116.5 C 42.992188 109.132812 42.382812 99.515625 40.054688 95.132812 C 40.03125 95.066406 39.984375 95.023438 39.960938 94.957031 C 40.886719 94.417969 41.828125 93.878906 42.773438 93.339844 C 44.597656 92.285156 46.375 91.320312 47.9375 90.480469 C 47.054688 92.800781 46.421875 95.601562 46.085938 99.636719 C 45.695312 104.363281 47.6875 110.476562 50.28125 112.882812 C 51.425781 113.9375 52.804688 113.964844 53.660156 113.964844 C 56.691406 113.964844 58.054688 111.515625 59.5625 108.589844 C 61.429688 105.023438 63.078125 100.882812 63.078125 100.882812 C 63.078125 100.882812 61.019531 112.089844 66.667969 112.089844 C 68.730469 112.089844 70.800781 109.492188 71.722656 108.160156 L 71.722656 108.179688 C 71.722656 108.179688 71.757812 108.097656 71.867188 107.921875 C 72.089844 107.597656 72.199219 107.410156 72.199219 107.410156 L 72.199219 107.34375 C 73.03125 105.949219 74.863281 102.75 77.609375 97.46875 C 81.167969 90.636719 84.566406 82.105469 84.566406 82.105469 C 84.894531 83.980469 85.351562 85.828125 85.929688 87.644531 C 86.546875 89.683594 87.847656 91.917969 88.878906 94.089844 C 88.046875 95.203125 87.535156 95.847656 87.535156 95.847656 C 87.535156 95.867188 87.546875 95.882812 87.5625 95.890625 C 86.898438 96.75 86.152344 97.671875 85.382812 98.574219 C 82.570312 101.84375 79.226562 105.585938 78.789062 106.660156 C 78.261719 107.925781 78.394531 108.867188 79.402344 109.597656 C 80.148438 110.15625 81.476562 110.242188 82.855469 110.136719 C 85.382812 109.964844 87.160156 109.359375 88.019531 108.976562 C 89.597656 108.421875 91.089844 107.660156 92.449219 106.703125 C 95.195312 104.726562 96.871094 101.890625 96.714844 98.152344 C 96.628906 96.089844 95.9375 94.023438 95.105469 92.09375 C 95.347656 91.75 95.617188 91.386719 95.855469 91.023438 C 100.207031 84.816406 103.5625 78.003906 103.5625 78.003906 C 103.890625 79.878906 104.347656 81.726562 104.929688 83.542969 C 105.457031 85.28125 106.492188 87.191406 107.4375 89.0625 C 103.355469 92.304688 100.820312 96.066406 99.9375 98.539062 C 98.3125 103.113281 99.59375 105.167969 101.988281 105.644531 C 103.066406 105.859375 104.601562 105.371094 105.742188 104.902344 C 107.441406 104.347656 109.039062 103.542969 110.484375 102.511719 C 113.234375 100.535156 115.890625 97.765625 115.714844 94.007812 C 115.648438 92.308594 115.171875 90.613281 114.53125 88.980469 C 117.984375 87.566406 122.460938 86.789062 128.171875 87.433594 C 140.40625 88.828125 142.804688 96.304688 142.347656 99.417969 C 141.886719 102.535156 139.3125 104.277344 138.457031 104.792969 C 137.597656 105.308594 137.335938 105.5 137.402344 105.890625 C 137.511719 106.449219 137.902344 106.425781 138.628906 106.292969 C 139.640625 106.121094 145.042969 103.757812 145.285156 97.980469 C 145.636719 90.679688 138.460938 82.652344 125.746094 82.707031 L 125.730469 82.707031 C 121.316406 82.710938 116.964844 83.699219 113.003906 85.609375 C 111.707031 83.054688 110.363281 80.820312 110.148438 79.148438 C 109.882812 77.191406 109.605469 76.035156 109.910156 73.71875 C 110.21875 71.398438 111.597656 68.105469 111.574219 67.867188 C 111.550781 67.632812 111.265625 66.453125 108.433594 66.429688 C 105.605469 66.40625 103.160156 66.96875 102.878906 67.695312 C 102.375 69.03125 101.988281 70.398438 101.714844 71.796875 C 101.207031 74.308594 96.046875 83.289062 93.128906 87.972656 C 92.160156 86.144531 91.351562 84.539062 91.175781 83.25 C 90.914062 81.292969 90.625 80.136719 90.929688 77.820312 C 91.238281 75.5 92.628906 72.207031 92.605469 71.96875 C 92.582031 71.734375 92.296875 70.554688 89.464844 70.53125 C 86.632812 70.507812 84.183594 71.070312 83.898438 71.796875 C 83.613281 72.527344 83.304688 74.242188 82.734375 75.898438 C 82.164062 77.550781 75.289062 92.511719 73.488281 96.394531 C 72.566406 98.375 71.773438 99.964844 71.199219 101.039062 C 71.113281 101.210938 71.050781 101.320312 71.007812 101.402344 C 71.074219 101.296875 71.117188 101.1875 71.117188 101.230469 C 70.636719 102.152344 70.347656 102.667969 70.347656 102.667969 L 70.347656 102.6875 C 69.972656 103.375 69.558594 104.003906 69.359375 104.003906 C 69.230469 104.003906 68.941406 102.199219 69.425781 99.726562 C 70.457031 94.53125 72.898438 86.449219 72.875 86.167969 C 72.851562 86.019531 73.328125 84.621094 71.265625 83.871094 C 69.261719 83.164062 68.550781 84.347656 68.371094 84.347656 C 68.195312 84.347656 68.058594 84.777344 68.058594 84.777344 C 68.058594 84.777344 70.273438 75.667969 63.792969 75.667969 C 59.75 75.667969 54.121094 80.007812 51.359375 83.9375 C 49.625 84.859375 45.867188 86.859375 41.914062 88.988281 C 40.398438 89.804688 38.84375 90.640625 37.371094 91.433594 C 37.265625 91.324219 37.171875 91.222656 37.0625 91.113281 C 29.195312 82.90625 14.675781 77.101562 15.289062 66.082031 C 15.507812 62.066406 16.945312 51.523438 43.210938 38.71875 C 64.746094 28.238281 81.960938 31.109375 84.925781 37.507812 C 89.183594 46.640625 75.714844 63.636719 53.355469 66.082031 C 44.835938 67.007812 40.910156 63.40625 39.789062 62.199219 C 38.625 60.933594 38.445312 60.867188 38.003906 61.101562 C 37.277344 61.488281 37.742188 62.605469 38.003906 63.273438 C 38.664062 64.96875 41.601562 67.625 46.28125 69.132812 C 50.390625 70.445312 59.832031 71.546875 71.914062 66.972656 C 85.488281 61.855469 95.859375 47.964844 92.761719 36.042969 C 90.789062 28.472656 82.03125 24.085938 70.988281 23.5 Z M 63.785156 81.042969 C 64.128906 81.066406 64.382812 81.195312 64.527344 81.4375 C 65.296875 82.707031 61.855469 92.058594 60.972656 94.160156 C 59.566406 97.535156 56.597656 106.132812 54.792969 105.679688 C 53.257812 105.296875 52.308594 98.738281 54.484375 92.292969 C 55.578125 89.050781 57.910156 85.183594 59.296875 83.679688 C 60.960938 81.859375 62.753906 80.964844 63.785156 81.042969 Z M 109.441406 91.644531 C 109.699219 92.394531 109.835938 93.183594 109.855469 93.96875 C 109.832031 98.808594 106.296875 100.609375 104.167969 101.359375 C 103.726562 101.058594 103.785156 100.042969 105.257812 96.910156 C 105.828125 95.683594 107.15625 93.621094 109.441406 91.644531 Z M 35.640625 96.972656 C 37.464844 103.503906 35.710938 109.261719 31.449219 113.800781 C 27.40625 118.117188 21.738281 119.75 19.300781 118.378906 C 16.683594 116.890625 17.71875 110.53125 22.703125 105.925781 C 25.738281 103.132812 29.652344 100.558594 32.246094 98.96875 C 32.839844 98.625 33.691406 98.109375 34.746094 97.484375 C 34.921875 97.378906 35.007812 97.339844 35.007812 97.339844 C 35.207031 97.210938 35.421875 97.105469 35.640625 96.972656 Z M 90.847656 97.722656 C 90.847656 97.832031 90.875 97.945312 90.875 98.070312 C 90.847656 101.914062 87.0625 104.511719 85.34375 105.542969 L 85.363281 105.542969 L 85.363281 105.550781 C 84.769531 105.851562 84.214844 106.039062 83.953125 105.890625 C 83.757812 105.78125 84.199219 105.378906 84.199219 105.378906 C 84.199219 105.378906 87.253906 102.171875 88.457031 100.707031 C 89.160156 99.851562 89.972656 98.839844 90.847656 97.722656 Z M 90.847656 97.722656 " id="animate_2" data-original="#000001" fill="#ffffff"></path>
</g></g>
</svg>