<svg xmlns="http://www.w3.org/2000/svg" width="150pt" height="150pt" viewBox="0 0 150 150" version="1.1" class="iconadda">
<g id="animate_0" transform="rotate(0,75,75) translate(0,0) scale(1.0,1.0)">
<g id="animate_1" style="transform-origin: 75px 77.3438px;"><path style="stroke: none; fill-rule: nonzero; fill-opacity: 1;" d="M 42.1875 64.21875 C 46.5625 46.71875 57.5 37.96875 75 37.96875 C 101.25 37.96875 104.53125 57.65625 117.65625 60.9375 C 126.40625 63.125 134.0625 59.84375 140.625 51.09375 C 136.25 68.59375 125.3125 77.34375 107.8125 77.34375 C 81.5625 77.34375 78.28125 57.65625 65.15625 54.375 C 56.40625 52.1875 48.75 55.46875 42.1875 64.21875 Z M 9.375 103.59375 C 13.75 86.09375 24.6875 77.34375 42.1875 77.34375 C 68.4375 77.34375 71.71875 97.03125 84.84375 100.3125 C 93.59375 102.5 101.25 99.21875 107.8125 90.46875 C 103.4375 107.96875 92.5 116.71875 75 116.71875 C 48.75 116.71875 45.46875 97.03125 32.34375 93.75 C 23.59375 91.5625 15.9375 94.84375 9.375 103.59375 Z M 9.375 103.59375 " id="animate_2" data-original="#44A8B3" fill="#ffffff" class=""></path>
</g></g>
</svg>