<svg xmlns="http://www.w3.org/2000/svg" width="150pt" height="150pt" viewBox="0 0 150 150" version="1.1">
<g id="animate_0" transform="rotate(0,75,75) translate(0,0) scale(1.0,1.0)">
<g id="animate_1" style="transform-origin: 70.3145px 70.3215px;"><path style="stroke: none; fill-rule: nonzero; fill-opacity: 1;" d="M 101.839844 130.5 C 98.933594 131.90625 95.457031 131.304688 93.1875 129.007812 L 45.148438 84.964844 L 24.222656 100.929688 L 24.226562 100.929688 C 22.28125 102.414062 19.550781 102.292969 17.746094 100.640625 L 11.035156 94.5 C 9.980469 93.527344 9.378906 92.160156 9.378906 90.726562 C 9.378906 89.292969 9.980469 87.925781 11.035156 86.953125 L 29.175781 70.3125 L 11.035156 53.671875 C 9.980469 52.699219 9.378906 51.332031 9.378906 49.898438 C 9.378906 48.464844 9.980469 47.097656 11.035156 46.125 L 17.746094 39.984375 C 19.554688 38.335938 22.28125 38.214844 24.226562 39.703125 L 45.152344 55.660156 L 93.1875 11.625 C 95.460938 9.335938 98.9375 8.738281 101.839844 10.144531 L 126.9375 22.277344 C 129.570312 23.550781 131.25 26.234375 131.25 29.175781 L 131.25 75 L 100.800781 75 L 100.800781 42.507812 L 64.351562 70.3125 L 100.800781 98.117188 L 100.800781 75 L 131.25 75 L 131.25 111.460938 C 131.25 114.40625 129.570312 117.085938 126.9375 118.359375 Z M 101.839844 130.5 " id="animate_2" data-original="#000000" fill="#ffffff"></path>
</g></g>
</svg>