<svg xmlns="http://www.w3.org/2000/svg" width="150pt" height="150pt" viewBox="0 0 150 150" version="1.1">
<g id="animate_0" transform="rotate(0,75,75) translate(0,0) scale(1.0,1.0)">
<g id="animate_1" style="transform-origin: 75px 75.6328px;"><path style="stroke: none; fill-rule: nonzero; fill-opacity: 1;" d="M 124.320312 48.675781 C 128.835938 56.941406 131.199219 66.210938 131.1875 75.632812 C 131.191406 95.640625 120.550781 114.144531 103.25 124.199219 L 120.414062 74.582031 C 123.621094 66.570312 124.6875 60.152344 124.6875 54.464844 L 124.6875 54.460938 C 124.691406 52.527344 124.566406 50.59375 124.320312 48.675781 M 82.75 49.21875 C 84.894531 49.113281 87.03125 48.929688 89.164062 48.667969 C 92.195312 48.273438 91.839844 43.824219 88.8125 43.988281 C 88.8125 43.988281 79.667969 44.6875 73.8125 44.6875 C 68.269531 44.6875 58.96875 43.90625 58.96875 43.90625 C 55.925781 43.757812 55.53125 48.363281 58.585938 48.519531 C 58.585938 48.519531 61.390625 48.84375 64.449219 48.988281 L 73.191406 72.976562 L 60.847656 109.84375 L 40.386719 49.070312 C 42.535156 48.960938 44.675781 48.789062 46.8125 48.550781 C 49.855469 48.15625 49.5 43.707031 46.46875 43.882812 C 46.46875 43.882812 37.375 44.601562 31.5 44.601562 C 30.457031 44.601562 29.21875 44.558594 27.90625 44.519531 C 38.082031 29.539062 55.386719 19.457031 75 19.457031 C 89.632812 19.457031 102.945312 25.042969 112.945312 34.207031 C 112.707031 34.195312 112.46875 34.15625 112.214844 34.15625 C 106.695312 34.15625 102.777344 38.96875 102.777344 44.132812 C 102.777344 48.765625 105.445312 52.6875 108.296875 57.308594 C 110.441406 61.066406 112.933594 65.871094 112.933594 72.816406 C 112.933594 77.585938 111.089844 83.203125 108.652344 90.933594 L 103.050781 109.601562 L 82.738281 49.132812 Z M 75 131.792969 C 69.625 131.800781 64.28125 131.03125 59.125 129.519531 L 75.980469 80.53125 L 93.25 127.855469 C 93.382812 128.128906 93.511719 128.386719 93.65625 128.628906 L 93.65625 128.632812 C 87.660156 130.734375 81.351562 131.808594 75 131.804688 M 18.8125 75.628906 L 18.8125 75.632812 C 18.804688 67.753906 20.460938 59.960938 23.675781 52.769531 L 50.46875 126.199219 C 40.976562 121.589844 32.976562 114.40625 27.378906 105.460938 C 21.777344 96.519531 18.8125 86.183594 18.8125 75.632812 M 75 13.132812 C 40.542969 13.132812 12.5 41.175781 12.5 75.632812 C 12.5 110.089844 40.542969 138.132812 75 138.132812 C 109.457031 138.132812 137.5 110.089844 137.5 75.632812 C 137.5 41.175781 109.457031 13.132812 75 13.132812 " id="animate_2" data-original="#000000" fill="#ffffff"></path>
</g></g>
</svg>